<?xml version="1.0" encoding="utf-8"?>
<!-- Generator: Adobe Illustrator 22.0.0, SVG Export Plug-In . SVG Version: 6.00 Build 0)  -->
<svg version="1.1" id="Layer_1" xmlns="http://www.w3.org/2000/svg" xmlns:xlink="http://www.w3.org/1999/xlink" x="0px" y="0px"
	 viewBox="0 0 100 30" style="enable-background:new 0 0 100 30;" xml:space="preserve">
<style type="text/css">
	.st0{fill:#FFCD05;}
</style>
<g>
	<g>
		<path d="M21.1,15.4v-5.1h1.2c1.7,1.2,5.6,4.1,6.3,4.7h0c-0.1-0.7-0.1-1.5-0.1-2.3v-2.3h0.8v5.1h-1.1c-1.6-1.2-5.6-4.2-6.3-4.7h0
			c0.1,0.7,0.1,1.4,0.1,2.4v2.4H21.1z"/>
		<path d="M33.4,13.6l-1.4,1.8h-0.8l3.9-5.1h1l4.1,5.1h-0.9l-1.4-1.8H33.4z M37.7,13.2c-1.2-1.5-1.8-2.3-2-2.6h0
			c-0.3,0.4-0.9,1.3-1.9,2.6H37.7z"/>
		<path d="M42.1,10.2h3.7c2.1,0,3.2,0.5,3.2,1.3c0,0.6-0.8,1-1.7,1.1c0.8,0.1,2,0.5,2,1.3c0,1-1.6,1.5-3.5,1.5h-3.8V10.2z
			 M45.6,12.4c1.9,0,2.6-0.3,2.6-0.9c0-0.5-0.7-0.9-2.2-0.9h-3v1.8H45.6z M42.9,15h3c1.4,0,2.6-0.3,2.6-1.1c0-0.7-0.9-1.1-3-1.1
			h-2.6V15z"/>
		<path d="M52.8,13.6l-1.4,1.8h-0.8l3.9-5.1h1l4.1,5.1h-0.9l-1.4-1.8H52.8z M57.1,13.2c-1.2-1.5-1.8-2.3-2-2.6h0
			c-0.3,0.4-0.9,1.3-1.9,2.6H57.1z"/>
		<path d="M61.5,10.2h3.6c2.9,0,5,1,5,2.5c0,1.5-2,2.6-5,2.6h-3.5V10.2z M62.4,15H65c2.8,0,4.2-1,4.2-2.2c0-1.1-1.3-2.2-4.2-2.2
			h-2.6V15z"/>
		<path d="M78.7,12.8h-5.5V15h6l-0.1,0.4h-6.7v-5.1H79v0.4h-5.7v1.9h5.5V12.8z"/>
		<path d="M82.5,13.6l-1.4,1.8h-0.8l3.9-5.1h1l4.1,5.1h-0.9L87,13.6H82.5z M86.7,13.2c-1.2-1.5-1.8-2.3-2-2.6h0
			c-0.3,0.4-0.9,1.3-1.9,2.6H86.7z"/>
		<path d="M91.2,10.2H92V15h5.8l-0.2,0.4h-6.4V10.2z"/>
	</g>
</g>
<path class="st0" d="M21.6,17.8l-9.5-4.9L21.6,8c0,0-2.2-6.4-10.3-6.1S0.2,10,0.7,14.2s4.2,8.8,10,9.9
	C10.7,24.1,19.6,24.4,21.6,17.8z"/>
</svg>
